<?xml version="1.0" encoding="UTF-8"?>
<svg version="1.1" xmlns="http://www.w3.org/2000/svg" width="1100" height="1200">
<path d="M0 0 C19.8 0 39.6 0 60 0 C60 6.6 60 13.2 60 20 C66.6 20 73.2 20 80 20 C80 26.6 80 33.2 80 40 C86.6 40 93.2 40 100 40 C100 46.6 100 53.2 100 60 C106.6 60 113.2 60 120 60 C120 66.6 120 73.2 120 80 C126.6 80 133.2 80 140 80 C140 99.8 140 119.6 140 140 C146.6 140 153.2 140 160 140 C160 153.2 160 166.4 160 180 C166.6 180 173.2 180 180 180 C180 199.8 180 219.6 180 240 C186.6 240 193.2 240 200 240 C200 253.2 200 266.4 200 280 C206.6 280 213.2 280 220 280 C220 286.6 220 293.2 220 300 C226.6 300 233.2 300 240 300 C240 306.6 240 313.2 240 320 C233.4 320 226.8 320 220 320 C220 326.6 220 333.2 220 340 C226.6 340 233.2 340 240 340 C240 346.6 240 353.2 240 360 C246.6 360 253.2 360 260 360 C260 366.6 260 373.2 260 380 C253.4 380 246.8 380 240 380 C240 386.6 240 393.2 240 400 C226.8 400 213.6 400 200 400 C200 406.6 200 413.2 200 420 C206.6 420 213.2 420 220 420 C220 426.6 220 433.2 220 440 C226.6 440 233.2 440 240 440 C240 446.6 240 453.2 240 460 C246.6 460 253.2 460 260 460 C260 486.4 260 512.8 260 540 C266.6 540 273.2 540 280 540 C280 546.6 280 553.2 280 560 C286.6 560 293.2 560 300 560 C300 533.6 300 507.2 300 480 C306.6 480 313.2 480 320 480 C320 473.4 320 466.8 320 460 C333.2 460 346.4 460 360 460 C360 466.6 360 473.2 360 480 C366.6 480 373.2 480 380 480 C380 473.4 380 466.8 380 460 C386.6 460 393.2 460 400 460 C400 453.4 400 446.8 400 440 C406.6 440 413.2 440 420 440 C420 446.6 420 453.2 420 460 C426.6 460 433.2 460 440 460 C440 453.4 440 446.8 440 440 C446.6 440 453.2 440 460 440 C460 446.6 460 453.2 460 460 C466.6 460 473.2 460 480 460 C480 466.6 480 473.2 480 480 C486.6 480 493.2 480 500 480 C500 499.8 500 519.6 500 540 C493.4 540 486.8 540 480 540 C480 546.6 480 553.2 480 560 C473.4 560 466.8 560 460 560 C460 566.6 460 573.2 460 580 C453.4 580 446.8 580 440 580 C440 586.6 440 593.2 440 600 C433.4 600 426.8 600 420 600 C420 606.6 420 613.2 420 620 C413.4 620 406.8 620 400 620 C400 626.6 400 633.2 400 640 C393.4 640 386.8 640 380 640 C380 646.6 380 653.2 380 660 C373.4 660 366.8 660 360 660 C360 666.6 360 673.2 360 680 C353.4 680 346.8 680 340 680 C340 686.6 340 693.2 340 700 C333.4 700 326.8 700 320 700 C320 706.6 320 713.2 320 720 C313.4 720 306.8 720 300 720 C300 726.6 300 733.2 300 740 C293.4 740 286.8 740 280 740 C280 733.4 280 726.8 280 720 C273.4 720 266.8 720 260 720 C260 713.4 260 706.8 260 700 C253.4 700 246.8 700 240 700 C240 693.4 240 686.8 240 680 C233.4 680 226.8 680 220 680 C220 673.4 220 666.8 220 660 C213.4 660 206.8 660 200 660 C200 653.4 200 646.8 200 640 C193.4 640 186.8 640 180 640 C180 653.2 180 666.4 180 680 C173.4 680 166.8 680 160 680 C160 699.8 160 719.6 160 740 C166.6 740 173.2 740 180 740 C180 766.4 180 792.8 180 820 C173.4 820 166.8 820 160 820 C160 853 160 886 160 920 C153.4 920 146.8 920 140 920 C140 959.6 140 999.2 140 1040 C146.6 1040 153.2 1040 160 1040 C160 1046.6 160 1053.2 160 1060 C166.6 1060 173.2 1060 180 1060 C180 1073.2 180 1086.4 180 1100 C173.4 1100 166.8 1100 160 1100 C160 1106.6 160 1113.2 160 1120 C133.6 1120 107.2 1120 80 1120 C80 1113.4 80 1106.8 80 1100 C66.8 1100 53.6 1100 40 1100 C40 1093.4 40 1086.8 40 1080 C33.4 1080 26.8 1080 20 1080 C20 1086.6 20 1093.2 20 1100 C6.8 1100 -6.4 1100 -20 1100 C-20 1106.6 -20 1113.2 -20 1120 C-46.4 1120 -72.8 1120 -100 1120 C-100 1113.4 -100 1106.8 -100 1100 C-106.6 1100 -113.2 1100 -120 1100 C-120 1086.8 -120 1073.6 -120 1060 C-113.4 1060 -106.8 1060 -100 1060 C-100 1053.4 -100 1046.8 -100 1040 C-93.4 1040 -86.8 1040 -80 1040 C-80 1000.4 -80 960.8 -80 920 C-86.6 920 -93.2 920 -100 920 C-100 887 -100 854 -100 820 C-106.6 820 -113.2 820 -120 820 C-120 793.6 -120 767.2 -120 740 C-113.4 740 -106.8 740 -100 740 C-100 720.2 -100 700.4 -100 680 C-106.6 680 -113.2 680 -120 680 C-120 666.8 -120 653.6 -120 640 C-126.6 640 -133.2 640 -140 640 C-140 646.6 -140 653.2 -140 660 C-146.6 660 -153.2 660 -160 660 C-160 666.6 -160 673.2 -160 680 C-166.6 680 -173.2 680 -180 680 C-180 686.6 -180 693.2 -180 700 C-186.6 700 -193.2 700 -200 700 C-200 706.6 -200 713.2 -200 720 C-206.6 720 -213.2 720 -220 720 C-220 726.6 -220 733.2 -220 740 C-226.6 740 -233.2 740 -240 740 C-240 733.4 -240 726.8 -240 720 C-246.6 720 -253.2 720 -260 720 C-260 713.4 -260 706.8 -260 700 C-266.6 700 -273.2 700 -280 700 C-280 693.4 -280 686.8 -280 680 C-286.6 680 -293.2 680 -300 680 C-300 673.4 -300 666.8 -300 660 C-306.6 660 -313.2 660 -320 660 C-320 653.4 -320 646.8 -320 640 C-326.6 640 -333.2 640 -340 640 C-340 633.4 -340 626.8 -340 620 C-346.6 620 -353.2 620 -360 620 C-360 613.4 -360 606.8 -360 600 C-366.6 600 -373.2 600 -380 600 C-380 593.4 -380 586.8 -380 580 C-386.6 580 -393.2 580 -400 580 C-400 573.4 -400 566.8 -400 560 C-406.6 560 -413.2 560 -420 560 C-420 553.4 -420 546.8 -420 540 C-426.6 540 -433.2 540 -440 540 C-440 520.2 -440 500.4 -440 480 C-433.4 480 -426.8 480 -420 480 C-420 473.4 -420 466.8 -420 460 C-413.4 460 -406.8 460 -400 460 C-400 453.4 -400 446.8 -400 440 C-393.4 440 -386.8 440 -380 440 C-380 446.6 -380 453.2 -380 460 C-373.4 460 -366.8 460 -360 460 C-360 453.4 -360 446.8 -360 440 C-353.4 440 -346.8 440 -340 440 C-340 446.6 -340 453.2 -340 460 C-333.4 460 -326.8 460 -320 460 C-320 466.6 -320 473.2 -320 480 C-313.4 480 -306.8 480 -300 480 C-300 473.4 -300 466.8 -300 460 C-286.8 460 -273.6 460 -260 460 C-260 466.6 -260 473.2 -260 480 C-253.4 480 -246.8 480 -240 480 C-240 506.4 -240 532.8 -240 560 C-233.4 560 -226.8 560 -220 560 C-220 553.4 -220 546.8 -220 540 C-213.4 540 -206.8 540 -200 540 C-200 513.6 -200 487.2 -200 460 C-193.4 460 -186.8 460 -180 460 C-180 453.4 -180 446.8 -180 440 C-173.4 440 -166.8 440 -160 440 C-160 433.4 -160 426.8 -160 420 C-153.4 420 -146.8 420 -140 420 C-140 413.4 -140 406.8 -140 400 C-159.8 400 -179.6 400 -200 400 C-200 393.4 -200 386.8 -200 380 C-206.6 380 -213.2 380 -220 380 C-220 373.4 -220 366.8 -220 360 C-213.4 360 -206.8 360 -200 360 C-200 353.4 -200 346.8 -200 340 C-186.8 340 -173.6 340 -160 340 C-160 333.4 -160 326.8 -160 320 C-173.2 320 -186.4 320 -200 320 C-200 313.4 -200 306.8 -200 300 C-186.8 300 -173.6 300 -160 300 C-160 293.4 -160 286.8 -160 280 C-153.4 280 -146.8 280 -140 280 C-140 266.8 -140 253.6 -140 240 C-133.4 240 -126.8 240 -120 240 C-120 213.6 -120 187.2 -120 160 C-113.4 160 -106.8 160 -100 160 C-100 146.8 -100 133.6 -100 120 C-93.4 120 -86.8 120 -80 120 C-80 106.8 -80 93.6 -80 80 C-73.4 80 -66.8 80 -60 80 C-60 73.4 -60 66.8 -60 60 C-53.4 60 -46.8 60 -40 60 C-40 53.4 -40 46.8 -40 40 C-33.4 40 -26.8 40 -20 40 C-20 33.4 -20 26.8 -20 20 C-13.4 20 -6.8 20 0 20 C0 13.4 0 6.8 0 0 Z " fill="#1A237E" transform="translate(520,40)"/>
<path d="M0 0 C19.8 0 39.6 0 60 0 C60 6.6 60 13.2 60 20 C66.6 20 73.2 20 80 20 C80 26.6 80 33.2 80 40 C86.6 40 93.2 40 100 40 C100 46.6 100 53.2 100 60 C106.6 60 113.2 60 120 60 C120 66.6 120 73.2 120 80 C126.6 80 133.2 80 140 80 C140 99.8 140 119.6 140 140 C146.6 140 153.2 140 160 140 C160 153.2 160 166.4 160 180 C166.6 180 173.2 180 180 180 C180 199.8 180 219.6 180 240 C186.6 240 193.2 240 200 240 C200 253.2 200 266.4 200 280 C206.6 280 213.2 280 220 280 C220 286.6 220 293.2 220 300 C226.6 300 233.2 300 240 300 C240 306.6 240 313.2 240 320 C233.4 320 226.8 320 220 320 C220 326.6 220 333.2 220 340 C226.6 340 233.2 340 240 340 C240 346.6 240 353.2 240 360 C246.6 360 253.2 360 260 360 C260 366.6 260 373.2 260 380 C233.6 380 207.2 380 180 380 C180 373.4 180 366.8 180 360 C173.4 360 166.8 360 160 360 C160 373.2 160 386.4 160 400 C166.6 400 173.2 400 180 400 C180 413.2 180 426.4 180 440 C173.4 440 166.8 440 160 440 C160 433.4 160 426.8 160 420 C153.4 420 146.8 420 140 420 C140 413.4 140 406.8 140 400 C126.8 400 113.6 400 100 400 C100 393.4 100 386.8 100 380 C86.8 380 73.6 380 60 380 C60 373.4 60 366.8 60 360 C66.6 360 73.2 360 80 360 C80 353.4 80 346.8 80 340 C86.6 340 93.2 340 100 340 C100 333.4 100 326.8 100 320 C106.6 320 113.2 320 120 320 C120 293.6 120 267.2 120 240 C106.8 240 93.6 240 80 240 C80 226.8 80 213.6 80 200 C86.6 200 93.2 200 100 200 C100 186.8 100 173.6 100 160 C86.8 160 73.6 160 60 160 C60 153.4 60 146.8 60 140 C53.4 140 46.8 140 40 140 C40 133.4 40 126.8 40 120 C33.4 120 26.8 120 20 120 C20 106.8 20 93.6 20 80 C13.4 80 6.8 80 0 80 C0 86.6 0 93.2 0 100 C-6.6 100 -13.2 100 -20 100 C-20 113.2 -20 126.4 -20 140 C-26.6 140 -33.2 140 -40 140 C-40 159.8 -40 179.6 -40 200 C-33.4 200 -26.8 200 -20 200 C-20 213.2 -20 226.4 -20 240 C-33.2 240 -46.4 240 -60 240 C-60 266.4 -60 292.8 -60 320 C-53.4 320 -46.8 320 -40 320 C-40 326.6 -40 333.2 -40 340 C-33.4 340 -26.8 340 -20 340 C-20 346.6 -20 353.2 -20 360 C-13.4 360 -6.8 360 0 360 C0 366.6 0 373.2 0 380 C-13.2 380 -26.4 380 -40 380 C-40 386.6 -40 393.2 -40 400 C-53.2 400 -66.4 400 -80 400 C-80 406.6 -80 413.2 -80 420 C-86.6 420 -93.2 420 -100 420 C-100 426.6 -100 433.2 -100 440 C-106.6 440 -113.2 440 -120 440 C-120 426.8 -120 413.6 -120 400 C-113.4 400 -106.8 400 -100 400 C-100 386.8 -100 373.6 -100 360 C-106.6 360 -113.2 360 -120 360 C-120 366.6 -120 373.2 -120 380 C-139.8 380 -159.6 380 -180 380 C-180 373.4 -180 366.8 -180 360 C-166.8 360 -153.6 360 -140 360 C-140 353.4 -140 346.8 -140 340 C-133.4 340 -126.8 340 -120 340 C-120 333.4 -120 326.8 -120 320 C-146.4 320 -172.8 320 -200 320 C-200 313.4 -200 306.8 -200 300 C-186.8 300 -173.6 300 -160 300 C-160 293.4 -160 286.8 -160 280 C-153.4 280 -146.8 280 -140 280 C-140 266.8 -140 253.6 -140 240 C-133.4 240 -126.8 240 -120 240 C-120 213.6 -120 187.2 -120 160 C-113.4 160 -106.8 160 -100 160 C-100 146.8 -100 133.6 -100 120 C-93.4 120 -86.8 120 -80 120 C-80 106.8 -80 93.6 -80 80 C-73.4 80 -66.8 80 -60 80 C-60 73.4 -60 66.8 -60 60 C-53.4 60 -46.8 60 -40 60 C-40 53.4 -40 46.8 -40 40 C-33.4 40 -26.8 40 -20 40 C-20 33.4 -20 26.8 -20 20 C-13.4 20 -6.8 20 0 20 C0 13.4 0 6.8 0 0 Z " fill="#FFFFFF" transform="translate(520,40)"/>
<path d="M0 0 C6.6 0 13.2 0 20 0 C20 13.2 20 26.4 20 40 C26.6 40 33.2 40 40 40 C40 46.6 40 53.2 40 60 C46.6 60 53.2 60 60 60 C60 66.6 60 73.2 60 80 C73.2 80 86.4 80 100 80 C100 93.2 100 106.4 100 120 C93.4 120 86.8 120 80 120 C80 133.2 80 146.4 80 160 C93.2 160 106.4 160 120 160 C120 186.4 120 212.8 120 240 C113.4 240 106.8 240 100 240 C100 246.6 100 253.2 100 260 C93.4 260 86.8 260 80 260 C80 266.6 80 273.2 80 280 C73.4 280 66.8 280 60 280 C60 293.2 60 306.4 60 320 C53.4 320 46.8 320 40 320 C40 326.6 40 333.2 40 340 C33.4 340 26.8 340 20 340 C20 333.4 20 326.8 20 320 C13.4 320 6.8 320 0 320 C0 306.8 0 293.6 0 280 C-6.6 280 -13.2 280 -20 280 C-20 273.4 -20 266.8 -20 260 C-26.6 260 -33.2 260 -40 260 C-40 253.4 -40 246.8 -40 240 C-46.6 240 -53.2 240 -60 240 C-60 213.6 -60 187.2 -60 160 C-46.8 160 -33.6 160 -20 160 C-20 146.8 -20 133.6 -20 120 C-26.6 120 -33.2 120 -40 120 C-40 100.2 -40 80.4 -40 60 C-33.4 60 -26.8 60 -20 60 C-20 46.8 -20 33.6 -20 20 C-13.4 20 -6.8 20 0 20 C0 13.4 0 6.8 0 0 Z " fill="#1A237E" transform="translate(520,120)"/>
<path d="M0 0 C13.2 0 26.4 0 40 0 C40 6.6 40 13.2 40 20 C46.6 20 53.2 20 60 20 C60 26.6 60 33.2 60 40 C66.6 40 73.2 40 80 40 C80 46.6 80 53.2 80 60 C86.6 60 93.2 60 100 60 C100 66.6 100 73.2 100 80 C106.6 80 113.2 80 120 80 C120 86.6 120 93.2 120 100 C113.4 100 106.8 100 100 100 C100 172.6 100 245.2 100 320 C86.8 320 73.6 320 60 320 C60 326.6 60 333.2 60 340 C73.2 340 86.4 340 100 340 C100 346.6 100 353.2 100 360 C86.8 360 73.6 360 60 360 C60 366.6 60 373.2 60 380 C33.6 380 7.2 380 -20 380 C-20 373.4 -20 366.8 -20 360 C-26.6 360 -33.2 360 -40 360 C-40 346.8 -40 333.6 -40 320 C-33.4 320 -26.8 320 -20 320 C-20 313.4 -20 306.8 -20 300 C-13.4 300 -6.8 300 0 300 C0 260.4 0 220.8 0 180 C6.6 180 13.2 180 20 180 C20 147 20 114 20 80 C13.4 80 6.8 80 0 80 C0 53.6 0 27.2 0 0 Z " fill="#1A237E" transform="translate(440,780)"/>
<path d="M0 0 C13.2 0 26.4 0 40 0 C40 6.6 40 13.2 40 20 C46.6 20 53.2 20 60 20 C60 26.6 60 33.2 60 40 C66.6 40 73.2 40 80 40 C80 46.6 80 53.2 80 60 C86.6 60 93.2 60 100 60 C100 66.6 100 73.2 100 80 C106.6 80 113.2 80 120 80 C120 119.6 120 159.2 120 200 C126.6 200 133.2 200 140 200 C140 206.6 140 213.2 140 220 C146.6 220 153.2 220 160 220 C160 233.2 160 246.4 160 260 C153.4 260 146.8 260 140 260 C140 266.6 140 273.2 140 280 C113.6 280 87.2 280 60 280 C60 273.4 60 266.8 60 260 C46.8 260 33.6 260 20 260 C20 253.4 20 246.8 20 240 C0.2 240 -19.6 240 -40 240 C-40 233.4 -40 226.8 -40 220 C-26.8 220 -13.6 220 0 220 C0 147.4 0 74.8 0 0 Z " fill="#1A237E" transform="translate(540,880)"/>
<path d="M0 0 C6.6 0 13.2 0 20 0 C20 6.6 20 13.2 20 20 C26.6 20 33.2 20 40 20 C40 13.4 40 6.8 40 0 C46.6 0 53.2 0 60 0 C60 6.6 60 13.2 60 20 C66.6 20 73.2 20 80 20 C80 26.6 80 33.2 80 40 C86.6 40 93.2 40 100 40 C100 33.4 100 26.8 100 20 C113.2 20 126.4 20 140 20 C140 53 140 86 140 120 C133.4 120 126.8 120 120 120 C120 100.2 120 80.4 120 60 C113.4 60 106.8 60 100 60 C100 73.2 100 86.4 100 100 C93.4 100 86.8 100 80 100 C80 93.4 80 86.8 80 80 C73.4 80 66.8 80 60 80 C60 66.8 60 53.6 60 40 C53.4 40 46.8 40 40 40 C40 53.2 40 66.4 40 80 C33.4 80 26.8 80 20 80 C20 66.8 20 53.6 20 40 C13.4 40 6.8 40 0 40 C0 59.8 0 79.6 0 100 C6.6 100 13.2 100 20 100 C20 106.6 20 113.2 20 120 C26.6 120 33.2 120 40 120 C40 126.6 40 133.2 40 140 C46.6 140 53.2 140 60 140 C60 146.6 60 153.2 60 160 C66.6 160 73.2 160 80 160 C80 166.6 80 173.2 80 180 C86.6 180 93.2 180 100 180 C100 186.6 100 193.2 100 200 C106.6 200 113.2 200 120 200 C120 206.6 120 213.2 120 220 C126.6 220 133.2 220 140 220 C140 226.6 140 233.2 140 240 C146.6 240 153.2 240 160 240 C160 246.6 160 253.2 160 260 C166.6 260 173.2 260 180 260 C180 273.2 180 286.4 180 300 C173.4 300 166.8 300 160 300 C160 293.4 160 286.8 160 280 C153.4 280 146.8 280 140 280 C140 273.4 140 266.8 140 260 C133.4 260 126.8 260 120 260 C120 253.4 120 246.8 120 240 C113.4 240 106.8 240 100 240 C100 233.4 100 226.8 100 220 C93.4 220 86.8 220 80 220 C80 213.4 80 206.8 80 200 C73.4 200 66.8 200 60 200 C60 193.4 60 186.8 60 180 C53.4 180 46.8 180 40 180 C40 173.4 40 166.8 40 160 C33.4 160 26.8 160 20 160 C20 153.4 20 146.8 20 140 C13.4 140 6.8 140 0 140 C0 133.4 0 126.8 0 120 C-6.6 120 -13.2 120 -20 120 C-20 113.4 -20 106.8 -20 100 C-26.6 100 -33.2 100 -40 100 C-40 80.2 -40 60.4 -40 40 C-33.4 40 -26.8 40 -20 40 C-20 33.4 -20 26.8 -20 20 C-13.4 20 -6.8 20 0 20 C0 13.4 0 6.8 0 0 Z " fill="#FFFFFF" transform="translate(120,480)"/>
<path d="M0 0 C6.6 0 13.2 0 20 0 C20 26.4 20 52.8 20 80 C26.6 80 33.2 80 40 80 C40 93.2 40 106.4 40 120 C46.6 120 53.2 120 60 120 C60 126.6 60 133.2 60 140 C46.8 140 33.6 140 20 140 C20 166.4 20 192.8 20 220 C26.6 220 33.2 220 40 220 C40 253 40 286 40 320 C26.8 320 13.6 320 0 320 C0 287 0 254 0 220 C-6.6 220 -13.2 220 -20 220 C-20 193.6 -20 167.2 -20 140 C-13.4 140 -6.8 140 0 140 C0 93.8 0 47.6 0 0 Z " fill="#FFFFFF" transform="translate(420,640)"/>
<path d="M0 0 C6.6 0 13.2 0 20 0 C20 6.6 20 13.2 20 20 C26.6 20 33.2 20 40 20 C40 13.4 40 6.8 40 0 C46.6 0 53.2 0 60 0 C60 6.6 60 13.2 60 20 C66.6 20 73.2 20 80 20 C80 26.6 80 33.2 80 40 C86.6 40 93.2 40 100 40 C100 59.8 100 79.6 100 100 C86.8 100 73.6 100 60 100 C60 80.2 60 60.4 60 40 C53.4 40 46.8 40 40 40 C40 53.2 40 66.4 40 80 C33.4 80 26.8 80 20 80 C20 66.8 20 53.6 20 40 C13.4 40 6.8 40 0 40 C0 53.2 0 66.4 0 80 C-6.6 80 -13.2 80 -20 80 C-20 86.6 -20 93.2 -20 100 C-26.6 100 -33.2 100 -40 100 C-40 86.8 -40 73.6 -40 60 C-46.6 60 -53.2 60 -60 60 C-60 79.8 -60 99.6 -60 120 C-66.6 120 -73.2 120 -80 120 C-80 87 -80 54 -80 20 C-66.8 20 -53.6 20 -40 20 C-40 26.6 -40 33.2 -40 40 C-33.4 40 -26.8 40 -20 40 C-20 33.4 -20 26.8 -20 20 C-13.4 20 -6.8 20 0 20 C0 13.4 0 6.8 0 0 Z " fill="#FFFFFF" transform="translate(920,480)"/>
<path d="M0 0 C6.6 0 13.2 0 20 0 C20 72.6 20 145.2 20 220 C33.2 220 46.4 220 60 220 C60 226.6 60 233.2 60 240 C27 240 -6 240 -40 240 C-40 233.4 -40 226.8 -40 220 C-26.8 220 -13.6 220 0 220 C0 147.4 0 74.8 0 0 Z " fill="#FFFFFF" transform="translate(540,880)"/>
<path d="M0 0 C13.2 0 26.4 0 40 0 C40 13.2 40 26.4 40 40 C33.4 40 26.8 40 20 40 C20 46.6 20 53.2 20 60 C-6.4 60 -32.8 60 -60 60 C-60 53.4 -60 46.8 -60 40 C-73.2 40 -86.4 40 -100 40 C-100 33.4 -100 26.8 -100 20 C-67 20 -34 20 0 20 C0 13.4 0 6.8 0 0 Z " fill="#FFFFFF" transform="translate(660,1100)"/>
<path d="M0 0 C13.2 0 26.4 0 40 0 C40 6.6 40 13.2 40 20 C73 20 106 20 140 20 C140 26.6 140 33.2 140 40 C126.8 40 113.6 40 100 40 C100 46.6 100 53.2 100 60 C73.6 60 47.2 60 20 60 C20 53.4 20 46.8 20 40 C13.4 40 6.8 40 0 40 C0 26.8 0 13.6 0 0 Z " fill="#FFFFFF" transform="translate(400,1100)"/>
<path d="M0 0 C13.2 0 26.4 0 40 0 C40 6.6 40 13.2 40 20 C53.2 20 66.4 20 80 20 C80 33.2 80 46.4 80 60 C73.4 60 66.8 60 60 60 C60 66.6 60 73.2 60 80 C53.4 80 46.8 80 40 80 C40 66.8 40 53.6 40 40 C33.4 40 26.8 40 20 40 C20 59.8 20 79.6 20 100 C13.4 100 6.8 100 0 100 C0 67 0 34 0 0 Z " fill="#FFFFFF" transform="translate(840,500)"/>
<path d="M0 0 C13.2 0 26.4 0 40 0 C40 33 40 66 40 100 C33.4 100 26.8 100 20 100 C20 80.2 20 60.4 20 40 C13.4 40 6.8 40 0 40 C0 53.2 0 66.4 0 80 C-6.6 80 -13.2 80 -20 80 C-20 73.4 -20 66.8 -20 60 C-26.6 60 -33.2 60 -40 60 C-40 46.8 -40 33.6 -40 20 C-26.8 20 -13.6 20 0 20 C0 13.4 0 6.8 0 0 Z " fill="#FFFFFF" transform="translate(220,500)"/>
<path d="M0 0 C6.6 0 13.2 0 20 0 C20 26.4 20 52.8 20 80 C26.6 80 33.2 80 40 80 C40 93.2 40 106.4 40 120 C46.6 120 53.2 120 60 120 C60 126.6 60 133.2 60 140 C40.2 140 20.4 140 0 140 C0 93.8 0 47.6 0 0 Z " fill="#FFFFFF" transform="translate(420,640)"/>
<path d="M0 0 C6.6 0 13.2 0 20 0 C20 6.6 20 13.2 20 20 C26.6 20 33.2 20 40 20 C40 13.4 40 6.8 40 0 C46.6 0 53.2 0 60 0 C60 6.6 60 13.2 60 20 C66.6 20 73.2 20 80 20 C80 26.6 80 33.2 80 40 C66.8 40 53.6 40 40 40 C40 53.2 40 66.4 40 80 C33.4 80 26.8 80 20 80 C20 66.8 20 53.6 20 40 C6.8 40 -6.4 40 -20 40 C-20 33.4 -20 26.8 -20 20 C-13.4 20 -6.8 20 0 20 C0 13.4 0 6.8 0 0 Z " fill="#FFFFFF" transform="translate(120,480)"/>
<path d="M0 0 C6.6 0 13.2 0 20 0 C20 6.6 20 13.2 20 20 C33.2 20 46.4 20 60 20 C60 26.6 60 33.2 60 40 C66.6 40 73.2 40 80 40 C80 46.6 80 53.2 80 60 C73.4 60 66.8 60 60 60 C60 66.6 60 73.2 60 80 C53.4 80 46.8 80 40 80 C40 73.4 40 66.8 40 60 C33.4 60 26.8 60 20 60 C20 53.4 20 46.8 20 40 C13.4 40 6.8 40 0 40 C0 26.8 0 13.6 0 0 Z " fill="#304FFE" transform="translate(500,320)"/>
<path d="M0 0 C6.6 0 13.2 0 20 0 C20 39.6 20 79.2 20 120 C13.4 120 6.8 120 0 120 C0 80.4 0 40.8 0 0 Z " fill="#1A237E" transform="translate(640,960)"/>
<path d="M0 0 C6.6 0 13.2 0 20 0 C20 39.6 20 79.2 20 120 C13.4 120 6.8 120 0 120 C0 80.4 0 40.8 0 0 Z " fill="#FFFFFF" transform="translate(620,960)"/>
<path d="M0 0 C6.6 0 13.2 0 20 0 C20 39.6 20 79.2 20 120 C13.4 120 6.8 120 0 120 C0 80.4 0 40.8 0 0 Z " fill="#FFFFFF" transform="translate(460,960)"/>
<path d="M0 0 C6.6 0 13.2 0 20 0 C20 33 20 66 20 100 C13.4 100 6.8 100 0 100 C0 93.4 0 86.8 0 80 C-6.6 80 -13.2 80 -20 80 C-20 73.4 -20 66.8 -20 60 C-13.4 60 -6.8 60 0 60 C0 40.2 0 20.4 0 0 Z " fill="#FFFFFF" transform="translate(640,860)"/>
<path d="M0 0 C6.6 0 13.2 0 20 0 C20 33 20 66 20 100 C13.4 100 6.8 100 0 100 C0 67 0 34 0 0 Z " fill="#1A237E" transform="translate(660,860)"/>
<path d="M0 0 C6.6 0 13.2 0 20 0 C20 33 20 66 20 100 C13.4 100 6.8 100 0 100 C0 67 0 34 0 0 Z " fill="#FFFFFF" transform="translate(440,860)"/>
<path d="M0 0 C6.6 0 13.2 0 20 0 C20 33 20 66 20 100 C13.4 100 6.8 100 0 100 C0 67 0 34 0 0 Z " fill="#1A237E" transform="translate(420,860)"/>
<path d="M0 0 C13.2 0 26.4 0 40 0 C40 19.8 40 39.6 40 60 C33.4 60 26.8 60 20 60 C20 53.4 20 46.8 20 40 C13.4 40 6.8 40 0 40 C0 26.8 0 13.6 0 0 Z " fill="#FFFFFF" transform="translate(180,520)"/>
<path d="M0 0 C26.4 0 52.8 0 80 0 C80 6.6 80 13.2 80 20 C53.6 20 27.2 20 0 20 C0 13.4 0 6.8 0 0 Z " fill="#1A237E" transform="translate(600,1140)"/>
<path d="M0 0 C26.4 0 52.8 0 80 0 C80 6.6 80 13.2 80 20 C53.6 20 27.2 20 0 20 C0 13.4 0 6.8 0 0 Z " fill="#1A237E" transform="translate(420,1140)"/>
<path d="M0 0 C6.6 0 13.2 0 20 0 C20 26.4 20 52.8 20 80 C13.4 80 6.8 80 0 80 C0 53.6 0 27.2 0 0 Z " fill="#1A237E" transform="translate(680,780)"/>
<path d="M0 0 C6.6 0 13.2 0 20 0 C20 26.4 20 52.8 20 80 C13.4 80 6.8 80 0 80 C0 53.6 0 27.2 0 0 Z " fill="#FFFFFF" transform="translate(660,780)"/>
<path d="M0 0 C6.6 0 13.2 0 20 0 C20 26.4 20 52.8 20 80 C13.4 80 6.8 80 0 80 C0 53.6 0 27.2 0 0 Z " fill="#1A237E" transform="translate(400,780)"/>
<path d="M0 0 C6.6 0 13.2 0 20 0 C20 13.2 20 26.4 20 40 C26.6 40 33.2 40 40 40 C40 46.6 40 53.2 40 60 C26.8 60 13.6 60 0 60 C0 40.2 0 20.4 0 0 Z " fill="#FFFFFF" transform="translate(440,720)"/>
<path d="M0 0 C6.6 0 13.2 0 20 0 C20 26.4 20 52.8 20 80 C13.4 80 6.8 80 0 80 C0 53.6 0 27.2 0 0 Z " fill="#FFFFFF" transform="translate(660,640)"/>
<path d="M0 0 C6.6 0 13.2 0 20 0 C20 26.4 20 52.8 20 80 C13.4 80 6.8 80 0 80 C0 53.6 0 27.2 0 0 Z " fill="#FFFFFF" transform="translate(680,560)"/>
<path d="M0 0 C6.6 0 13.2 0 20 0 C20 26.4 20 52.8 20 80 C13.4 80 6.8 80 0 80 C0 53.6 0 27.2 0 0 Z " fill="#FFFFFF" transform="translate(400,560)"/>
<path d="M0 0 C6.6 0 13.2 0 20 0 C20 13.2 20 26.4 20 40 C13.4 40 6.8 40 0 40 C0 46.6 0 53.2 0 60 C-6.6 60 -13.2 60 -20 60 C-20 46.8 -20 33.6 -20 20 C-13.4 20 -6.8 20 0 20 C0 13.4 0 6.8 0 0 Z " fill="#FFFFFF" transform="translate(900,520)"/>
<path d="M0 0 C6.6 0 13.2 0 20 0 C20 26.4 20 52.8 20 80 C13.4 80 6.8 80 0 80 C0 53.6 0 27.2 0 0 Z " fill="#1A237E" transform="translate(820,520)"/>
<path d="M0 0 C6.6 0 13.2 0 20 0 C20 26.4 20 52.8 20 80 C13.4 80 6.8 80 0 80 C0 53.6 0 27.2 0 0 Z " fill="#1A237E" transform="translate(260,520)"/>
<path d="M0 0 C6.6 0 13.2 0 20 0 C20 13.2 20 26.4 20 40 C0.2 40 -19.6 40 -40 40 C-40 33.4 -40 26.8 -40 20 C-26.8 20 -13.6 20 0 20 C0 13.4 0 6.8 0 0 Z " fill="#FFFFFF" transform="translate(740,500)"/>
<path d="M0 0 C6.6 0 13.2 0 20 0 C20 6.6 20 13.2 20 20 C33.2 20 46.4 20 60 20 C60 26.6 60 33.2 60 40 C40.2 40 20.4 40 0 40 C0 26.8 0 13.6 0 0 Z " fill="#FFFFFF" transform="translate(340,500)"/>
<path d="M0 0 C13.2 0 26.4 0 40 0 C40 6.6 40 13.2 40 20 C46.6 20 53.2 20 60 20 C60 26.6 60 33.2 60 40 C46.8 40 33.6 40 20 40 C20 33.4 20 26.8 20 20 C13.4 20 6.8 20 0 20 C0 13.4 0 6.8 0 0 Z " fill="#1A237E" transform="translate(700,360)"/>
<path d="M0 0 C6.6 0 13.2 0 20 0 C20 6.6 20 13.2 20 20 C33.2 20 46.4 20 60 20 C60 26.6 60 33.2 60 40 C40.2 40 20.4 40 0 40 C0 26.8 0 13.6 0 0 Z " fill="#FFFFFF" transform="translate(500,320)"/>
<path d="M0 0 C6.6 0 13.2 0 20 0 C20 26.4 20 52.8 20 80 C13.4 80 6.8 80 0 80 C0 53.6 0 27.2 0 0 Z " fill="#1A237E" transform="translate(400,200)"/>
<path d="M0 0 C19.8 0 39.6 0 60 0 C60 6.6 60 13.2 60 20 C40.2 20 20.4 20 0 20 C0 13.4 0 6.8 0 0 Z " fill="#FFFFFF" transform="translate(520,740)"/>
<path d="M0 0 C6.6 0 13.2 0 20 0 C20 19.8 20 39.6 20 60 C13.4 60 6.8 60 0 60 C0 40.2 0 20.4 0 0 Z " fill="#1A237E" transform="translate(660,720)"/>
<path d="M0 0 C6.6 0 13.2 0 20 0 C20 19.8 20 39.6 20 60 C13.4 60 6.8 60 0 60 C0 40.2 0 20.4 0 0 Z " fill="#FFFFFF" transform="translate(640,720)"/>
<path d="M0 0 C6.6 0 13.2 0 20 0 C20 19.8 20 39.6 20 60 C13.4 60 6.8 60 0 60 C0 40.2 0 20.4 0 0 Z " fill="#1A237E" transform="translate(420,720)"/>
<path d="M0 0 C13.2 0 26.4 0 40 0 C40 6.6 40 13.2 40 20 C33.4 20 26.8 20 20 20 C20 26.6 20 33.2 20 40 C13.4 40 6.8 40 0 40 C0 26.8 0 13.6 0 0 Z " fill="#FFFFFF" transform="translate(300,580)"/>
<path d="M0 0 C19.8 0 39.6 0 60 0 C60 6.6 60 13.2 60 20 C40.2 20 20.4 20 0 20 C0 13.4 0 6.8 0 0 Z " fill="#FFFFFF" transform="translate(520,560)"/>
<path d="M0 0 C6.6 0 13.2 0 20 0 C20 19.8 20 39.6 20 60 C13.4 60 6.8 60 0 60 C0 40.2 0 20.4 0 0 Z " fill="#1A237E" transform="translate(1000,520)"/>
<path d="M0 0 C6.6 0 13.2 0 20 0 C20 19.8 20 39.6 20 60 C13.4 60 6.8 60 0 60 C0 40.2 0 20.4 0 0 Z " fill="#FFFFFF" transform="translate(980,520)"/>
<path d="M0 0 C6.6 0 13.2 0 20 0 C20 19.8 20 39.6 20 60 C13.4 60 6.8 60 0 60 C0 40.2 0 20.4 0 0 Z " fill="#1A237E" transform="translate(80,520)"/>
<path d="M0 0 C6.6 0 13.2 0 20 0 C20 6.6 20 13.2 20 20 C26.6 20 33.2 20 40 20 C40 26.6 40 33.2 40 40 C26.8 40 13.6 40 0 40 C0 26.8 0 13.6 0 0 Z " fill="#FFFFFF" transform="translate(960,480)"/>
<path d="M0 0 C19.8 0 39.6 0 60 0 C60 6.6 60 13.2 60 20 C40.2 20 20.4 20 0 20 C0 13.4 0 6.8 0 0 Z " fill="#FFFFFF" transform="translate(640,500)"/>
<path d="M0 0 C19.8 0 39.6 0 60 0 C60 6.6 60 13.2 60 20 C40.2 20 20.4 20 0 20 C0 13.4 0 6.8 0 0 Z " fill="#FFFFFF" transform="translate(400,500)"/>
<path d="M0 0 C6.6 0 13.2 0 20 0 C20 6.6 20 13.2 20 20 C26.6 20 33.2 20 40 20 C40 26.6 40 33.2 40 40 C26.8 40 13.6 40 0 40 C0 26.8 0 13.6 0 0 Z " fill="#FFFFFF" transform="translate(160,480)"/>
<path d="M0 0 C6.6 0 13.2 0 20 0 C20 6.6 20 13.2 20 20 C26.6 20 33.2 20 40 20 C40 26.6 40 33.2 40 40 C26.8 40 13.6 40 0 40 C0 26.8 0 13.6 0 0 Z " fill="#FFFFFF" transform="translate(600,240)"/>
<path d="M0 0 C6.6 0 13.2 0 20 0 C20 13.2 20 26.4 20 40 C6.8 40 -6.4 40 -20 40 C-20 33.4 -20 26.8 -20 20 C-13.4 20 -6.8 20 0 20 C0 13.4 0 6.8 0 0 Z " fill="#FFFFFF" transform="translate(480,240)"/>
<path d="M0 0 C6.6 0 13.2 0 20 0 C20 19.8 20 39.6 20 60 C13.4 60 6.8 60 0 60 C0 40.2 0 20.4 0 0 Z " fill="#1A237E" transform="translate(680,220)"/>
<path d="M0 0 C6.6 0 13.2 0 20 0 C20 19.8 20 39.6 20 60 C13.4 60 6.8 60 0 60 C0 40.2 0 20.4 0 0 Z " fill="#1A237E" transform="translate(640,120)"/>
<path d="M0 0 C19.8 0 39.6 0 60 0 C60 6.6 60 13.2 60 20 C40.2 20 20.4 20 0 20 C0 13.4 0 6.8 0 0 Z " fill="#1A237E" transform="translate(520,40)"/>
<path d="M0 0 C13.2 0 26.4 0 40 0 C40 6.6 40 13.2 40 20 C26.8 20 13.6 20 0 20 C0 13.4 0 6.8 0 0 Z " fill="#1A237E" transform="translate(560,1120)"/>
<path d="M0 0 C13.2 0 26.4 0 40 0 C40 6.6 40 13.2 40 20 C26.8 20 13.6 20 0 20 C0 13.4 0 6.8 0 0 Z " fill="#1A237E" transform="translate(500,1120)"/>
<path d="M0 0 C6.6 0 13.2 0 20 0 C20 13.2 20 26.4 20 40 C13.4 40 6.8 40 0 40 C0 26.8 0 13.6 0 0 Z " fill="#1A237E" transform="translate(680,1100)"/>
<path d="M0 0 C13.2 0 26.4 0 40 0 C40 6.6 40 13.2 40 20 C26.8 20 13.6 20 0 20 C0 13.4 0 6.8 0 0 Z " fill="#FFFFFF" transform="translate(560,1100)"/>
<path d="M0 0 C13.2 0 26.4 0 40 0 C40 6.6 40 13.2 40 20 C26.8 20 13.6 20 0 20 C0 13.4 0 6.8 0 0 Z " fill="#FFFFFF" transform="translate(500,1100)"/>
<path d="M0 0 C6.6 0 13.2 0 20 0 C20 13.2 20 26.4 20 40 C13.4 40 6.8 40 0 40 C0 26.8 0 13.6 0 0 Z " fill="#1A237E" transform="translate(400,1100)"/>
<path d="M0 0 C13.2 0 26.4 0 40 0 C40 6.6 40 13.2 40 20 C26.8 20 13.6 20 0 20 C0 13.4 0 6.8 0 0 Z " fill="#FFFFFF" transform="translate(420,1080)"/>
<path d="M0 0 C13.2 0 26.4 0 40 0 C40 6.6 40 13.2 40 20 C26.8 20 13.6 20 0 20 C0 13.4 0 6.8 0 0 Z " fill="#FFFFFF" transform="translate(560,620)"/>
<path d="M0 0 C13.2 0 26.4 0 40 0 C40 6.6 40 13.2 40 20 C26.8 20 13.6 20 0 20 C0 13.4 0 6.8 0 0 Z " fill="#FFFFFF" transform="translate(500,620)"/>
<path d="M0 0 C13.2 0 26.4 0 40 0 C40 6.6 40 13.2 40 20 C26.8 20 13.6 20 0 20 C0 13.4 0 6.8 0 0 Z " fill="#FFFFFF" transform="translate(600,540)"/>
<path d="M0 0 C13.2 0 26.4 0 40 0 C40 6.6 40 13.2 40 20 C26.8 20 13.6 20 0 20 C0 13.4 0 6.8 0 0 Z " fill="#FFFFFF" transform="translate(460,540)"/>
<path d="M0 0 C6.6 0 13.2 0 20 0 C20 13.2 20 26.4 20 40 C13.4 40 6.8 40 0 40 C0 26.8 0 13.6 0 0 Z " fill="#FFFFFF" transform="translate(940,520)"/>
<path d="M0 0 C6.6 0 13.2 0 20 0 C20 13.2 20 26.4 20 40 C13.4 40 6.8 40 0 40 C0 26.8 0 13.6 0 0 Z " fill="#FFFFFF" transform="translate(140,520)"/>
<path d="M0 0 C13.2 0 26.4 0 40 0 C40 6.6 40 13.2 40 20 C26.8 20 13.6 20 0 20 C0 13.4 0 6.8 0 0 Z " fill="#1A237E" transform="translate(840,500)"/>
<path d="M0 0 C13.2 0 26.4 0 40 0 C40 6.6 40 13.2 40 20 C26.8 20 13.6 20 0 20 C0 13.4 0 6.8 0 0 Z " fill="#1A237E" transform="translate(220,500)"/>
<path d="M0 0 C13.2 0 26.4 0 40 0 C40 6.6 40 13.2 40 20 C26.8 20 13.6 20 0 20 C0 13.4 0 6.8 0 0 Z " fill="#FFFFFF" transform="translate(600,480)"/>
<path d="M0 0 C13.2 0 26.4 0 40 0 C40 6.6 40 13.2 40 20 C26.8 20 13.6 20 0 20 C0 13.4 0 6.8 0 0 Z " fill="#FFFFFF" transform="translate(460,480)"/>
<path d="M0 0 C13.2 0 26.4 0 40 0 C40 6.6 40 13.2 40 20 C26.8 20 13.6 20 0 20 C0 13.4 0 6.8 0 0 Z " fill="#FFFFFF" transform="translate(340,480)"/>
<path d="M0 0 C6.6 0 13.2 0 20 0 C20 13.2 20 26.4 20 40 C13.4 40 6.8 40 0 40 C0 26.8 0 13.6 0 0 Z " fill="#304FFE" transform="translate(580,320)"/>
<path d="M0 0 C6.6 0 13.2 0 20 0 C20 13.2 20 26.4 20 40 C13.4 40 6.8 40 0 40 C0 26.8 0 13.6 0 0 Z " fill="#304FFE" transform="translate(500,320)"/>
<path d="M0 0 C13.2 0 26.4 0 40 0 C40 6.6 40 13.2 40 20 C26.8 20 13.6 20 0 20 C0 13.4 0 6.8 0 0 Z " fill="#1A237E" transform="translate(320,340)"/>
<path d="M0 0 C6.6 0 13.2 0 20 0 C20 13.2 20 26.4 20 40 C13.4 40 6.8 40 0 40 C0 26.8 0 13.6 0 0 Z " fill="#1A237E" transform="translate(700,280)"/>
<path d="M0 0 C6.6 0 13.2 0 20 0 C20 13.2 20 26.4 20 40 C13.4 40 6.8 40 0 40 C0 26.8 0 13.6 0 0 Z " fill="#1A237E" transform="translate(380,280)"/>
<path d="M0 0 C6.6 0 13.2 0 20 0 C20 13.2 20 26.4 20 40 C13.4 40 6.8 40 0 40 C0 26.8 0 13.6 0 0 Z " fill="#1A237E" transform="translate(660,180)"/>
<path d="M0 0 C6.6 0 13.2 0 20 0 C20 13.2 20 26.4 20 40 C13.4 40 6.8 40 0 40 C0 26.8 0 13.6 0 0 Z " fill="#1A237E" transform="translate(420,160)"/>
<path d="M0 0 C6.6 0 13.2 0 20 0 C20 13.2 20 26.4 20 40 C13.4 40 6.8 40 0 40 C0 26.8 0 13.6 0 0 Z " fill="#1A237E" transform="translate(440,120)"/>
<path d="M0 0 C6.6 0 13.2 0 20 0 C20 6.6 20 13.2 20 20 C13.4 20 6.8 20 0 20 C0 13.4 0 6.8 0 0 Z " fill="#1A237E" transform="translate(540,1100)"/>
<path d="M0 0 C6.6 0 13.2 0 20 0 C20 6.6 20 13.2 20 20 C13.4 20 6.8 20 0 20 C0 13.4 0 6.8 0 0 Z " fill="#FFFFFF" transform="translate(640,1080)"/>
<path d="M0 0 C6.6 0 13.2 0 20 0 C20 6.6 20 13.2 20 20 C13.4 20 6.8 20 0 20 C0 13.4 0 6.8 0 0 Z " fill="#1A237E" transform="translate(420,1080)"/>
<path d="M0 0 C6.6 0 13.2 0 20 0 C20 6.6 20 13.2 20 20 C13.4 20 6.8 20 0 20 C0 13.4 0 6.8 0 0 Z " fill="#FFFFFF" transform="translate(600,900)"/>
<path d="M0 0 C6.6 0 13.2 0 20 0 C20 6.6 20 13.2 20 20 C13.4 20 6.8 20 0 20 C0 13.4 0 6.8 0 0 Z " fill="#FFFFFF" transform="translate(580,880)"/>
<path d="M0 0 C6.6 0 13.2 0 20 0 C20 6.6 20 13.2 20 20 C13.4 20 6.8 20 0 20 C0 13.4 0 6.8 0 0 Z " fill="#FFFFFF" transform="translate(560,860)"/>
<path d="M0 0 C6.6 0 13.2 0 20 0 C20 6.6 20 13.2 20 20 C13.4 20 6.8 20 0 20 C0 13.4 0 6.8 0 0 Z " fill="#FFFFFF" transform="translate(540,840)"/>
<path d="M0 0 C6.6 0 13.2 0 20 0 C20 6.6 20 13.2 20 20 C13.4 20 6.8 20 0 20 C0 13.4 0 6.8 0 0 Z " fill="#FFFFFF" transform="translate(520,820)"/>
<path d="M0 0 C6.6 0 13.2 0 20 0 C20 6.6 20 13.2 20 20 C13.4 20 6.8 20 0 20 C0 13.4 0 6.8 0 0 Z " fill="#FFFFFF" transform="translate(500,800)"/>
<path d="M0 0 C6.6 0 13.2 0 20 0 C20 6.6 20 13.2 20 20 C13.4 20 6.8 20 0 20 C0 13.4 0 6.8 0 0 Z " fill="#FFFFFF" transform="translate(480,780)"/>
<path d="M0 0 C6.6 0 13.2 0 20 0 C20 6.6 20 13.2 20 20 C13.4 20 6.8 20 0 20 C0 13.4 0 6.8 0 0 Z " fill="#1A237E" transform="translate(800,760)"/>
<path d="M0 0 C6.6 0 13.2 0 20 0 C20 6.6 20 13.2 20 20 C13.4 20 6.8 20 0 20 C0 13.4 0 6.8 0 0 Z " fill="#1A237E" transform="translate(280,760)"/>
<path d="M0 0 C6.6 0 13.2 0 20 0 C20 6.6 20 13.2 20 20 C13.4 20 6.8 20 0 20 C0 13.4 0 6.8 0 0 Z " fill="#1A237E" transform="translate(820,740)"/>
<path d="M0 0 C6.6 0 13.2 0 20 0 C20 6.6 20 13.2 20 20 C13.4 20 6.8 20 0 20 C0 13.4 0 6.8 0 0 Z " fill="#FFFFFF" transform="translate(800,740)"/>
<path d="M0 0 C6.6 0 13.2 0 20 0 C20 6.6 20 13.2 20 20 C13.4 20 6.8 20 0 20 C0 13.4 0 6.8 0 0 Z " fill="#1A237E" transform="translate(780,740)"/>
<path d="M0 0 C6.6 0 13.2 0 20 0 C20 6.6 20 13.2 20 20 C13.4 20 6.8 20 0 20 C0 13.4 0 6.8 0 0 Z " fill="#1A237E" transform="translate(300,740)"/>
<path d="M0 0 C6.6 0 13.2 0 20 0 C20 6.6 20 13.2 20 20 C13.4 20 6.8 20 0 20 C0 13.4 0 6.8 0 0 Z " fill="#FFFFFF" transform="translate(280,740)"/>
<path d="M0 0 C6.6 0 13.2 0 20 0 C20 6.6 20 13.2 20 20 C13.4 20 6.8 20 0 20 C0 13.4 0 6.8 0 0 Z " fill="#1A237E" transform="translate(260,740)"/>
<path d="M0 0 C6.6 0 13.2 0 20 0 C20 6.6 20 13.2 20 20 C13.4 20 6.8 20 0 20 C0 13.4 0 6.8 0 0 Z " fill="#1A237E" transform="translate(840,720)"/>
<path d="M0 0 C6.6 0 13.2 0 20 0 C20 6.6 20 13.2 20 20 C13.4 20 6.8 20 0 20 C0 13.4 0 6.8 0 0 Z " fill="#FFFFFF" transform="translate(820,720)"/>
<path d="M0 0 C6.6 0 13.2 0 20 0 C20 6.6 20 13.2 20 20 C13.4 20 6.8 20 0 20 C0 13.4 0 6.8 0 0 Z " fill="#FFFFFF" transform="translate(780,720)"/>
<path d="M0 0 C6.6 0 13.2 0 20 0 C20 6.6 20 13.2 20 20 C13.4 20 6.8 20 0 20 C0 13.4 0 6.8 0 0 Z " fill="#1A237E" transform="translate(760,720)"/>
<path d="M0 0 C6.6 0 13.2 0 20 0 C20 6.6 20 13.2 20 20 C13.4 20 6.8 20 0 20 C0 13.4 0 6.8 0 0 Z " fill="#1A237E" transform="translate(320,720)"/>
<path d="M0 0 C6.6 0 13.2 0 20 0 C20 6.6 20 13.2 20 20 C13.4 20 6.8 20 0 20 C0 13.4 0 6.8 0 0 Z " fill="#FFFFFF" transform="translate(300,720)"/>
<path d="M0 0 C6.6 0 13.2 0 20 0 C20 6.6 20 13.2 20 20 C13.4 20 6.8 20 0 20 C0 13.4 0 6.8 0 0 Z " fill="#FFFFFF" transform="translate(260,720)"/>
<path d="M0 0 C6.6 0 13.2 0 20 0 C20 6.6 20 13.2 20 20 C13.4 20 6.8 20 0 20 C0 13.4 0 6.8 0 0 Z " fill="#1A237E" transform="translate(240,720)"/>
<path d="M0 0 C6.6 0 13.2 0 20 0 C20 6.6 20 13.2 20 20 C13.4 20 6.8 20 0 20 C0 13.4 0 6.8 0 0 Z " fill="#1A237E" transform="translate(860,700)"/>
<path d="M0 0 C6.6 0 13.2 0 20 0 C20 6.6 20 13.2 20 20 C13.4 20 6.8 20 0 20 C0 13.4 0 6.8 0 0 Z " fill="#FFFFFF" transform="translate(840,700)"/>
<path d="M0 0 C6.6 0 13.2 0 20 0 C20 6.6 20 13.2 20 20 C13.4 20 6.8 20 0 20 C0 13.4 0 6.8 0 0 Z " fill="#FFFFFF" transform="translate(760,700)"/>
<path d="M0 0 C6.6 0 13.2 0 20 0 C20 6.6 20 13.2 20 20 C13.4 20 6.8 20 0 20 C0 13.4 0 6.8 0 0 Z " fill="#1A237E" transform="translate(740,700)"/>
<path d="M0 0 C6.6 0 13.2 0 20 0 C20 6.6 20 13.2 20 20 C13.4 20 6.8 20 0 20 C0 13.4 0 6.8 0 0 Z " fill="#1A237E" transform="translate(340,700)"/>
<path d="M0 0 C6.6 0 13.2 0 20 0 C20 6.6 20 13.2 20 20 C13.4 20 6.8 20 0 20 C0 13.4 0 6.8 0 0 Z " fill="#FFFFFF" transform="translate(320,700)"/>
<path d="M0 0 C6.6 0 13.2 0 20 0 C20 6.6 20 13.2 20 20 C13.4 20 6.8 20 0 20 C0 13.4 0 6.8 0 0 Z " fill="#FFFFFF" transform="translate(240,700)"/>
<path d="M0 0 C6.6 0 13.2 0 20 0 C20 6.6 20 13.2 20 20 C13.4 20 6.8 20 0 20 C0 13.4 0 6.8 0 0 Z " fill="#1A237E" transform="translate(220,700)"/>
<path d="M0 0 C6.6 0 13.2 0 20 0 C20 6.6 20 13.2 20 20 C13.4 20 6.8 20 0 20 C0 13.4 0 6.8 0 0 Z " fill="#1A237E" transform="translate(880,680)"/>
<path d="M0 0 C6.6 0 13.2 0 20 0 C20 6.6 20 13.2 20 20 C13.4 20 6.8 20 0 20 C0 13.4 0 6.8 0 0 Z " fill="#FFFFFF" transform="translate(860,680)"/>
<path d="M0 0 C6.6 0 13.2 0 20 0 C20 6.6 20 13.2 20 20 C13.4 20 6.8 20 0 20 C0 13.4 0 6.8 0 0 Z " fill="#FFFFFF" transform="translate(740,680)"/>
<path d="M0 0 C6.6 0 13.2 0 20 0 C20 6.6 20 13.2 20 20 C13.4 20 6.8 20 0 20 C0 13.4 0 6.8 0 0 Z " fill="#1A237E" transform="translate(720,680)"/>
<path d="M0 0 C6.6 0 13.2 0 20 0 C20 6.6 20 13.2 20 20 C13.4 20 6.8 20 0 20 C0 13.4 0 6.8 0 0 Z " fill="#FFFFFF" transform="translate(580,680)"/>
<path d="M0 0 C6.6 0 13.2 0 20 0 C20 6.6 20 13.2 20 20 C13.4 20 6.8 20 0 20 C0 13.4 0 6.8 0 0 Z " fill="#FFFFFF" transform="translate(540,680)"/>
<path d="M0 0 C6.6 0 13.2 0 20 0 C20 6.6 20 13.2 20 20 C13.4 20 6.8 20 0 20 C0 13.4 0 6.8 0 0 Z " fill="#FFFFFF" transform="translate(500,680)"/>
<path d="M0 0 C6.6 0 13.2 0 20 0 C20 6.6 20 13.2 20 20 C13.4 20 6.8 20 0 20 C0 13.4 0 6.8 0 0 Z " fill="#1A237E" transform="translate(360,680)"/>
<path d="M0 0 C6.6 0 13.2 0 20 0 C20 6.6 20 13.2 20 20 C13.4 20 6.8 20 0 20 C0 13.4 0 6.8 0 0 Z " fill="#FFFFFF" transform="translate(340,680)"/>
<path d="M0 0 C6.6 0 13.2 0 20 0 C20 6.6 20 13.2 20 20 C13.4 20 6.8 20 0 20 C0 13.4 0 6.8 0 0 Z " fill="#FFFFFF" transform="translate(220,680)"/>
<path d="M0 0 C6.6 0 13.2 0 20 0 C20 6.6 20 13.2 20 20 C13.4 20 6.8 20 0 20 C0 13.4 0 6.8 0 0 Z " fill="#1A237E" transform="translate(200,680)"/>
<path d="M0 0 C6.6 0 13.2 0 20 0 C20 6.6 20 13.2 20 20 C13.4 20 6.8 20 0 20 C0 13.4 0 6.8 0 0 Z " fill="#1A237E" transform="translate(900,660)"/>
<path d="M0 0 C6.6 0 13.2 0 20 0 C20 6.6 20 13.2 20 20 C13.4 20 6.8 20 0 20 C0 13.4 0 6.8 0 0 Z " fill="#FFFFFF" transform="translate(880,660)"/>
<path d="M0 0 C6.6 0 13.2 0 20 0 C20 6.6 20 13.2 20 20 C13.4 20 6.8 20 0 20 C0 13.4 0 6.8 0 0 Z " fill="#FFFFFF" transform="translate(720,660)"/>
<path d="M0 0 C6.6 0 13.2 0 20 0 C20 6.6 20 13.2 20 20 C13.4 20 6.8 20 0 20 C0 13.4 0 6.8 0 0 Z " fill="#FFFFFF" transform="translate(620,660)"/>
<path d="M0 0 C6.6 0 13.2 0 20 0 C20 6.6 20 13.2 20 20 C13.4 20 6.8 20 0 20 C0 13.4 0 6.8 0 0 Z " fill="#FFFFFF" transform="translate(460,660)"/>
<path d="M0 0 C6.6 0 13.2 0 20 0 C20 6.6 20 13.2 20 20 C13.4 20 6.8 20 0 20 C0 13.4 0 6.8 0 0 Z " fill="#FFFFFF" transform="translate(360,660)"/>
<path d="M0 0 C6.6 0 13.2 0 20 0 C20 6.6 20 13.2 20 20 C13.4 20 6.8 20 0 20 C0 13.4 0 6.8 0 0 Z " fill="#FFFFFF" transform="translate(200,660)"/>
<path d="M0 0 C6.6 0 13.2 0 20 0 C20 6.6 20 13.2 20 20 C13.4 20 6.8 20 0 20 C0 13.4 0 6.8 0 0 Z " fill="#1A237E" transform="translate(180,660)"/>
<path d="M0 0 C6.6 0 13.2 0 20 0 C20 6.6 20 13.2 20 20 C13.4 20 6.8 20 0 20 C0 13.4 0 6.8 0 0 Z " fill="#1A237E" transform="translate(920,640)"/>
<path d="M0 0 C6.6 0 13.2 0 20 0 C20 6.6 20 13.2 20 20 C13.4 20 6.8 20 0 20 C0 13.4 0 6.8 0 0 Z " fill="#FFFFFF" transform="translate(900,640)"/>
<path d="M0 0 C6.6 0 13.2 0 20 0 C20 6.6 20 13.2 20 20 C13.4 20 6.8 20 0 20 C0 13.4 0 6.8 0 0 Z " fill="#FFFFFF" transform="translate(180,640)"/>
<path d="M0 0 C6.6 0 13.2 0 20 0 C20 6.6 20 13.2 20 20 C13.4 20 6.8 20 0 20 C0 13.4 0 6.8 0 0 Z " fill="#1A237E" transform="translate(160,640)"/>
<path d="M0 0 C6.6 0 13.2 0 20 0 C20 6.6 20 13.2 20 20 C13.4 20 6.8 20 0 20 C0 13.4 0 6.8 0 0 Z " fill="#1A237E" transform="translate(940,620)"/>
<path d="M0 0 C6.6 0 13.2 0 20 0 C20 6.6 20 13.2 20 20 C13.4 20 6.8 20 0 20 C0 13.4 0 6.8 0 0 Z " fill="#FFFFFF" transform="translate(920,620)"/>
<path d="M0 0 C6.6 0 13.2 0 20 0 C20 6.6 20 13.2 20 20 C13.4 20 6.8 20 0 20 C0 13.4 0 6.8 0 0 Z " fill="#FFFFFF" transform="translate(800,620)"/>
<path d="M0 0 C6.6 0 13.2 0 20 0 C20 6.6 20 13.2 20 20 C13.4 20 6.8 20 0 20 C0 13.4 0 6.8 0 0 Z " fill="#FFFFFF" transform="translate(280,620)"/>
<path d="M0 0 C6.6 0 13.2 0 20 0 C20 6.6 20 13.2 20 20 C13.4 20 6.8 20 0 20 C0 13.4 0 6.8 0 0 Z " fill="#FFFFFF" transform="translate(160,620)"/>
<path d="M0 0 C6.6 0 13.2 0 20 0 C20 6.6 20 13.2 20 20 C13.4 20 6.8 20 0 20 C0 13.4 0 6.8 0 0 Z " fill="#1A237E" transform="translate(140,620)"/>
<path d="M0 0 C6.6 0 13.2 0 20 0 C20 6.6 20 13.2 20 20 C13.4 20 6.8 20 0 20 C0 13.4 0 6.8 0 0 Z " fill="#FFFFFF" transform="translate(940,600)"/>
<path d="M0 0 C6.6 0 13.2 0 20 0 C20 6.6 20 13.2 20 20 C13.4 20 6.8 20 0 20 C0 13.4 0 6.8 0 0 Z " fill="#FFFFFF" transform="translate(820,600)"/>
<path d="M0 0 C6.6 0 13.2 0 20 0 C20 6.6 20 13.2 20 20 C13.4 20 6.8 20 0 20 C0 13.4 0 6.8 0 0 Z " fill="#FFFFFF" transform="translate(780,600)"/>
<path d="M0 0 C6.6 0 13.2 0 20 0 C20 6.6 20 13.2 20 20 C13.4 20 6.8 20 0 20 C0 13.4 0 6.8 0 0 Z " fill="#FFFFFF" transform="translate(620,600)"/>
<path d="M0 0 C6.6 0 13.2 0 20 0 C20 6.6 20 13.2 20 20 C13.4 20 6.8 20 0 20 C0 13.4 0 6.8 0 0 Z " fill="#FFFFFF" transform="translate(460,600)"/>
<path d="M0 0 C6.6 0 13.2 0 20 0 C20 6.6 20 13.2 20 20 C13.4 20 6.8 20 0 20 C0 13.4 0 6.8 0 0 Z " fill="#FFFFFF" transform="translate(300,600)"/>
<path d="M0 0 C6.6 0 13.2 0 20 0 C20 6.6 20 13.2 20 20 C13.4 20 6.8 20 0 20 C0 13.4 0 6.8 0 0 Z " fill="#FFFFFF" transform="translate(260,600)"/>
<path d="M0 0 C6.6 0 13.2 0 20 0 C20 6.6 20 13.2 20 20 C13.4 20 6.8 20 0 20 C0 13.4 0 6.8 0 0 Z " fill="#FFFFFF" transform="translate(140,600)"/>
<path d="M0 0 C6.6 0 13.2 0 20 0 C20 6.6 20 13.2 20 20 C13.4 20 6.8 20 0 20 C0 13.4 0 6.8 0 0 Z " fill="#1A237E" transform="translate(120,600)"/>
<path d="M0 0 C6.6 0 13.2 0 20 0 C20 6.6 20 13.2 20 20 C13.4 20 6.8 20 0 20 C0 13.4 0 6.8 0 0 Z " fill="#FFFFFF" transform="translate(960,580)"/>
<path d="M0 0 C6.6 0 13.2 0 20 0 C20 6.6 20 13.2 20 20 C13.4 20 6.8 20 0 20 C0 13.4 0 6.8 0 0 Z " fill="#FFFFFF" transform="translate(760,580)"/>
<path d="M0 0 C6.6 0 13.2 0 20 0 C20 6.6 20 13.2 20 20 C13.4 20 6.8 20 0 20 C0 13.4 0 6.8 0 0 Z " fill="#1A237E" transform="translate(300,580)"/>
<path d="M0 0 C6.6 0 13.2 0 20 0 C20 6.6 20 13.2 20 20 C13.4 20 6.8 20 0 20 C0 13.4 0 6.8 0 0 Z " fill="#FFFFFF" transform="translate(120,580)"/>
<path d="M0 0 C6.6 0 13.2 0 20 0 C20 6.6 20 13.2 20 20 C13.4 20 6.8 20 0 20 C0 13.4 0 6.8 0 0 Z " fill="#1A237E" transform="translate(100,580)"/>
<path d="M0 0 C6.6 0 13.2 0 20 0 C20 6.6 20 13.2 20 20 C13.4 20 6.8 20 0 20 C0 13.4 0 6.8 0 0 Z " fill="#1A237E" transform="translate(880,520)"/>
<path d="M0 0 C6.6 0 13.2 0 20 0 C20 6.6 20 13.2 20 20 C13.4 20 6.8 20 0 20 C0 13.4 0 6.8 0 0 Z " fill="#1A237E" transform="translate(200,520)"/>
<path d="M0 0 C6.6 0 13.2 0 20 0 C20 6.6 20 13.2 20 20 C13.4 20 6.8 20 0 20 C0 13.4 0 6.8 0 0 Z " fill="#1A237E" transform="translate(980,500)"/>
<path d="M0 0 C6.6 0 13.2 0 20 0 C20 6.6 20 13.2 20 20 C13.4 20 6.8 20 0 20 C0 13.4 0 6.8 0 0 Z " fill="#1A237E" transform="translate(940,500)"/>
<path d="M0 0 C6.6 0 13.2 0 20 0 C20 6.6 20 13.2 20 20 C13.4 20 6.8 20 0 20 C0 13.4 0 6.8 0 0 Z " fill="#1A237E" transform="translate(900,500)"/>
<path d="M0 0 C6.6 0 13.2 0 20 0 C20 6.6 20 13.2 20 20 C13.4 20 6.8 20 0 20 C0 13.4 0 6.8 0 0 Z " fill="#1A237E" transform="translate(180,500)"/>
<path d="M0 0 C6.6 0 13.2 0 20 0 C20 6.6 20 13.2 20 20 C13.4 20 6.8 20 0 20 C0 13.4 0 6.8 0 0 Z " fill="#1A237E" transform="translate(140,500)"/>
<path d="M0 0 C6.6 0 13.2 0 20 0 C20 6.6 20 13.2 20 20 C13.4 20 6.8 20 0 20 C0 13.4 0 6.8 0 0 Z " fill="#1A237E" transform="translate(100,500)"/>
<path d="M0 0 C6.6 0 13.2 0 20 0 C20 6.6 20 13.2 20 20 C13.4 20 6.8 20 0 20 C0 13.4 0 6.8 0 0 Z " fill="#1A237E" transform="translate(960,480)"/>
<path d="M0 0 C6.6 0 13.2 0 20 0 C20 6.6 20 13.2 20 20 C13.4 20 6.8 20 0 20 C0 13.4 0 6.8 0 0 Z " fill="#1A237E" transform="translate(920,480)"/>
<path d="M0 0 C6.6 0 13.2 0 20 0 C20 6.6 20 13.2 20 20 C13.4 20 6.8 20 0 20 C0 13.4 0 6.8 0 0 Z " fill="#FFFFFF" transform="translate(720,480)"/>
<path d="M0 0 C6.6 0 13.2 0 20 0 C20 6.6 20 13.2 20 20 C13.4 20 6.8 20 0 20 C0 13.4 0 6.8 0 0 Z " fill="#1A237E" transform="translate(340,480)"/>
<path d="M0 0 C6.6 0 13.2 0 20 0 C20 6.6 20 13.2 20 20 C13.4 20 6.8 20 0 20 C0 13.4 0 6.8 0 0 Z " fill="#1A237E" transform="translate(160,480)"/>
<path d="M0 0 C6.6 0 13.2 0 20 0 C20 6.6 20 13.2 20 20 C13.4 20 6.8 20 0 20 C0 13.4 0 6.8 0 0 Z " fill="#1A237E" transform="translate(120,480)"/>
<path d="M0 0 C6.6 0 13.2 0 20 0 C20 6.6 20 13.2 20 20 C13.4 20 6.8 20 0 20 C0 13.4 0 6.8 0 0 Z " fill="#FFFFFF" transform="translate(580,460)"/>
<path d="M0 0 C6.6 0 13.2 0 20 0 C20 6.6 20 13.2 20 20 C13.4 20 6.8 20 0 20 C0 13.4 0 6.8 0 0 Z " fill="#FFFFFF" transform="translate(500,460)"/>
<path d="M0 0 C6.6 0 13.2 0 20 0 C20 6.6 20 13.2 20 20 C13.4 20 6.8 20 0 20 C0 13.4 0 6.8 0 0 Z " fill="#FFFFFF" transform="translate(540,440)"/>
<path d="M0 0 C6.6 0 13.2 0 20 0 C20 6.6 20 13.2 20 20 C13.4 20 6.8 20 0 20 C0 13.4 0 6.8 0 0 Z " fill="#FFFFFF" transform="translate(560,420)"/>
<path d="M0 0 C6.6 0 13.2 0 20 0 C20 6.6 20 13.2 20 20 C13.4 20 6.8 20 0 20 C0 13.4 0 6.8 0 0 Z " fill="#FFFFFF" transform="translate(520,420)"/>
<path d="M0 0 C6.6 0 13.2 0 20 0 C20 6.6 20 13.2 20 20 C13.4 20 6.8 20 0 20 C0 13.4 0 6.8 0 0 Z " fill="#1A237E" transform="translate(760,400)"/>
<path d="M0 0 C6.6 0 13.2 0 20 0 C20 6.6 20 13.2 20 20 C13.4 20 6.8 20 0 20 C0 13.4 0 6.8 0 0 Z " fill="#1A237E" transform="translate(660,380)"/>
<path d="M0 0 C6.6 0 13.2 0 20 0 C20 6.6 20 13.2 20 20 C13.4 20 6.8 20 0 20 C0 13.4 0 6.8 0 0 Z " fill="#1A237E" transform="translate(420,380)"/>
<path d="M0 0 C6.6 0 13.2 0 20 0 C20 6.6 20 13.2 20 20 C13.4 20 6.8 20 0 20 C0 13.4 0 6.8 0 0 Z " fill="#1A237E" transform="translate(740,340)"/>
<path d="M0 0 C6.6 0 13.2 0 20 0 C20 6.6 20 13.2 20 20 C13.4 20 6.8 20 0 20 C0 13.4 0 6.8 0 0 Z " fill="#1A237E" transform="translate(720,320)"/>
<path d="M0 0 C6.6 0 13.2 0 20 0 C20 6.6 20 13.2 20 20 C13.4 20 6.8 20 0 20 C0 13.4 0 6.8 0 0 Z " fill="#FFFFFF" transform="translate(580,320)"/>
<path d="M0 0 C6.6 0 13.2 0 20 0 C20 6.6 20 13.2 20 20 C13.4 20 6.8 20 0 20 C0 13.4 0 6.8 0 0 Z " fill="#FFFFFF" transform="translate(500,320)"/>
<path d="M0 0 C6.6 0 13.2 0 20 0 C20 6.6 20 13.2 20 20 C13.4 20 6.8 20 0 20 C0 13.4 0 6.8 0 0 Z " fill="#1A237E" transform="translate(360,320)"/>
<path d="M0 0 C6.6 0 13.2 0 20 0 C20 6.6 20 13.2 20 20 C13.4 20 6.8 20 0 20 C0 13.4 0 6.8 0 0 Z " fill="#1A237E" transform="translate(640,260)"/>
<path d="M0 0 C6.6 0 13.2 0 20 0 C20 6.6 20 13.2 20 20 C13.4 20 6.8 20 0 20 C0 13.4 0 6.8 0 0 Z " fill="#1A237E" transform="translate(440,260)"/>
<path d="M0 0 C6.6 0 13.2 0 20 0 C20 6.6 20 13.2 20 20 C13.4 20 6.8 20 0 20 C0 13.4 0 6.8 0 0 Z " fill="#1A237E" transform="translate(620,240)"/>
<path d="M0 0 C6.6 0 13.2 0 20 0 C20 6.6 20 13.2 20 20 C13.4 20 6.8 20 0 20 C0 13.4 0 6.8 0 0 Z " fill="#FFFFFF" transform="translate(560,240)"/>
<path d="M0 0 C6.6 0 13.2 0 20 0 C20 6.6 20 13.2 20 20 C13.4 20 6.8 20 0 20 C0 13.4 0 6.8 0 0 Z " fill="#FFFFFF" transform="translate(520,240)"/>
<path d="M0 0 C6.6 0 13.2 0 20 0 C20 6.6 20 13.2 20 20 C13.4 20 6.8 20 0 20 C0 13.4 0 6.8 0 0 Z " fill="#1A237E" transform="translate(460,240)"/>
<path d="M0 0 C6.6 0 13.2 0 20 0 C20 6.6 20 13.2 20 20 C13.4 20 6.8 20 0 20 C0 13.4 0 6.8 0 0 Z " fill="#FFFFFF" transform="translate(580,220)"/>
<path d="M0 0 C6.6 0 13.2 0 20 0 C20 6.6 20 13.2 20 20 C13.4 20 6.8 20 0 20 C0 13.4 0 6.8 0 0 Z " fill="#FFFFFF" transform="translate(500,220)"/>
<path d="M0 0 C6.6 0 13.2 0 20 0 C20 6.6 20 13.2 20 20 C13.4 20 6.8 20 0 20 C0 13.4 0 6.8 0 0 Z " fill="#1A237E" transform="translate(620,100)"/>
<path d="M0 0 C6.6 0 13.2 0 20 0 C20 6.6 20 13.2 20 20 C13.4 20 6.8 20 0 20 C0 13.4 0 6.8 0 0 Z " fill="#1A237E" transform="translate(460,100)"/>
<path d="M0 0 C6.6 0 13.2 0 20 0 C20 6.6 20 13.2 20 20 C13.4 20 6.8 20 0 20 C0 13.4 0 6.8 0 0 Z " fill="#1A237E" transform="translate(600,80)"/>
<path d="M0 0 C6.6 0 13.2 0 20 0 C20 6.6 20 13.2 20 20 C13.4 20 6.8 20 0 20 C0 13.4 0 6.8 0 0 Z " fill="#1A237E" transform="translate(480,80)"/>
<path d="M0 0 C6.6 0 13.2 0 20 0 C20 6.6 20 13.2 20 20 C13.4 20 6.8 20 0 20 C0 13.4 0 6.8 0 0 Z " fill="#1A237E" transform="translate(580,60)"/>
<path d="M0 0 C6.6 0 13.2 0 20 0 C20 6.6 20 13.2 20 20 C13.4 20 6.8 20 0 20 C0 13.4 0 6.8 0 0 Z " fill="#1A237E" transform="translate(500,60)"/>
</svg>
